<?xml version="1.0" standalone="no"?>
<!DOCTYPE svg PUBLIC "-//W3C//DTD SVG 20010904//EN"
 "http://www.w3.org/TR/2001/REC-SVG-20010904/DTD/svg10.dtd">
<svg version="1.0" xmlns="http://www.w3.org/2000/svg"
 width="744.000000pt" height="646.000000pt" viewBox="0 0 744.000000 646.000000"
 preserveAspectRatio="xMidYMid meet">
<metadata>
Created by potrace 1.16, written by Peter Selinger 2001-2019
</metadata>
<g transform="translate(0.000000,646.000000) scale(0.100000,-0.100000)"
fill="#ff4444" stroke="none">
<path d="M3567 4727 c-11 -25 -60 -175 -111 -342 -2 -6 -66 -35 -142 -65 -146
-57 -415 -187 -496 -239 -41 -26 -64 -61 -40 -61 4 0 84 38 177 84 224 112
438 201 461 192 8 -3 1 -44 -23 -128 -43 -158 -159 -614 -198 -786 -4 -18 -50
-45 -220 -130 -220 -109 -244 -127 -211 -161 15 -14 40 -16 186 -13 159 3 168
2 164 -15 -2 -10 -37 -153 -79 -318 -41 -165 -77 -319 -81 -341 -9 -57 11 -67
49 -24 22 25 26 34 16 41 -18 11 -8 58 105 524 l32 130 44 7 c25 3 195 12 378
18 184 6 340 14 348 17 20 8 13 26 -17 39 -18 9 -79 9 -244 -1 -318 -18 -485
-19 -485 -3 0 23 33 153 42 164 5 7 167 91 361 187 200 100 397 205 457 245
170 113 279 235 314 352 40 135 -5 240 -128 296 -122 55 -386 71 -562 33 -170
-37 -157 -37 -149 2 4 18 27 94 51 169 24 74 44 141 44 148 0 25 -30 11 -43
-21z m568 -355 c119 -37 172 -76 195 -142 26 -73 -33 -194 -148 -302 -122
-114 -249 -190 -707 -422 -194 -98 -235 -115 -235 -101 0 9 90 376 116 470 62
229 123 447 127 451 6 6 185 55 232 64 84 15 351 4 420 -18z m-965 -1089 c0
-5 -8 -39 -18 -78 l-18 -70 -110 -6 c-121 -6 -164 -2 -164 15 0 7 64 42 143
78 141 65 167 75 167 61z"/>
<path d="M2130 1780 l0 -300 40 0 40 0 0 136 0 135 46 -3 46 -3 77 -132 76
-133 47 0 47 0 -85 136 c-46 74 -84 137 -84 138 0 2 12 6 28 9 38 8 90 62 98
103 11 61 -5 125 -40 160 -40 40 -102 54 -236 54 l-100 0 0 -300z m274 201
c21 -20 26 -34 26 -71 0 -37 -5 -51 -26 -71 -22 -21 -37 -24 -110 -28 l-84 -3
0 102 0 102 84 -3 c73 -4 88 -7 110 -28z"/>
<path d="M2800 1780 l0 -300 160 0 160 0 0 35 0 35 -120 0 -120 0 0 100 0 100
105 0 105 0 0 30 0 30 -105 0 -105 0 0 100 0 100 120 0 120 0 0 35 0 35 -160
0 -160 0 0 -300z"/>
<path d="M3334 2063 c4 -10 52 -144 109 -298 l102 -280 43 0 44 0 75 205 c41
113 90 247 108 298 l34 92 -42 0 -43 0 -83 -238 c-45 -131 -86 -243 -90 -250
-3 -6 -45 100 -93 236 l-86 247 -42 3 c-36 3 -41 1 -36 -15z"/>
<path d="M4236 2048 c-23 -57 -206 -555 -206 -562 0 -3 17 -6 39 -6 38 0 38 0
63 68 l25 67 138 0 138 0 22 -65 22 -65 42 -3 c38 -3 42 -1 37 15 -4 10 -53
144 -109 298 l-103 280 -47 3 c-45 3 -48 2 -61 -30z m113 -196 c28 -79 51
-148 51 -153 0 -11 -210 -12 -210 -1 0 9 103 302 106 299 1 -1 25 -66 53 -145z"/>
<path d="M4955 2068 c-3 -7 -52 -141 -109 -298 l-104 -285 30 -3 c47 -5 54 2
78 72 l22 66 137 0 137 0 24 -70 24 -70 42 0 41 0 -67 183 c-36 100 -86 235
-109 300 l-43 117 -49 0 c-31 0 -51 -5 -54 -12z m121 -255 l43 -123 -110 0
c-61 0 -109 4 -107 9 2 5 26 75 53 155 l50 146 14 -32 c7 -18 33 -88 57 -155z"/>
</g>
</svg>
