<svg xmlns="http://www.w3.org/2000/svg" xmlns:xlink="http://www.w3.org/1999/xlink" xml:space="preserve" version="1.1" style="shape-rendering:geometricPrecision;text-rendering:geometricPrecision;image-rendering:optimizeQuality;" viewBox="0 0 333 416.25" x="0px" y="0px" fill-rule="evenodd" clip-rule="evenodd"><defs><style type="text/css">
   
    .fil0 {fill:black}
   
  </style></defs><g><path class="fil0" d="M104 28c-3,-10 -6,-18 -16,-19l-19 -1c-20,-1 -53,29 -53,79 1,87 131,229 217,237 51,5 83,-25 84,-46l0 -18c1,-10 -7,-14 -17,-18 -19,-7 -38,-16 -57,-23 -8,-3 -15,2 -20,5 -7,6 -12,10 -18,17 -5,4 -10,6 -15,1 -43,-22 -78,-60 -96,-104 -4,-6 -2,-11 3,-15 7,-6 12,-11 18,-17 4,-4 9,-11 7,-19 -6,-19 -12,-40 -18,-59z"/></g><text x="0" y="348" fill="#000000" font-size="5px" font-weight="bold" font-family="'Helvetica Neue', Helvetica, Arial-Unicode, Arial, Sans-serif">Created by Aulia</text><text x="0" y="353" fill="#000000" font-size="5px" font-weight="bold" font-family="'Helvetica Neue', Helvetica, Arial-Unicode, Arial, Sans-serif">from the Noun Project</text></svg>