<svg id="Capa_1" enable-background="new 0 0 512 512" height="512" viewBox="0 0 512 512" width="512" xmlns="http://www.w3.org/2000/svg"><g><g><path clip-rule="evenodd" d="m455.333 465.877v40.972c0 2.845-2.306 5.151-5.151 5.151h-43.558l-8.116-60.952z" fill="#eff6ff" fill-rule="evenodd"/></g><g><path clip-rule="evenodd" d="m56.667 465.877v40.972c0 2.845 2.306 5.151 5.151 5.151h43.528c2.713-15.195 11.836-62.068 11.836-62.068z" fill="#eff6ff" fill-rule="evenodd"/></g><g><path clip-rule="evenodd" d="m312.44 106.533-23.458 84.603-14.022-68.112c-.441-2.205-.764-3.939-.823-5.556-.147-2.734.353-5.174 1.881-9.025l10.112-25.693z" fill="#d9eeff" fill-rule="evenodd"/></g><g><path clip-rule="evenodd" d="m274.96 123.025 14.022 68.112-29.925 107.944c-.794 2.293-1.94 3.439-3.057 3.439-1.146 0-2.263-1.146-3.087-3.439l-29.925-107.944 14.022-68.112c.47-2.205.764-3.939.852-5.556h36.274c.06 1.617.383 3.351.824 5.556z" fill="#ff6d75" fill-rule="evenodd"/></g><g><path clip-rule="evenodd" d="m286.131 82.751-10.112 25.693c-1.529 3.851-2.028 6.291-1.881 9.025h-36.274c.118-2.734-.382-5.174-1.881-9.025l-10.143-25.693 30.16-27.25z" fill="#fe8d94" fill-rule="evenodd"/></g><g><path clip-rule="evenodd" d="m206.527 10.759 49.473 44.742-30.16 27.251-26.309 23.782-17.696-63.82c3.645-2.146 6.261-4.762 8.907-8.672z" fill="#eff6ff" fill-rule="evenodd"/></g><g><path clip-rule="evenodd" d="m330.136 42.713-17.696 63.82-26.309-23.782-30.131-27.25 49.473-44.742 15.756 23.282c2.646 3.91 5.291 6.526 8.907 8.672z" fill="#eff6ff" fill-rule="evenodd"/></g><g><path clip-rule="evenodd" d="m285.484 0c12.699 0 13.111.617 18.108 7.966l1.881 2.793-49.473 44.742-49.473-44.742 1.881-2.793c4.968-7.349 5.38-7.966 18.079-7.966z" fill="#d9eeff" fill-rule="evenodd"/></g><g><path clip-rule="evenodd" d="m237.863 117.469c-.088 1.617-.382 3.351-.852 5.556l-14.022 68.112-23.458-84.603 26.309-23.782 10.142 25.693c1.499 3.85 1.998 6.29 1.881 9.024z" fill="#d9eeff" fill-rule="evenodd"/></g><g><path clip-rule="evenodd" d="m455.274 147.483.059 318.394h-51.413l-37.568-85.926c-3.527-8.084-3.527-17.168-3.939-25.898-1.058-21.077 1.029-42.625 4.027-62.438l33.188-221.297c54.793 21.429 55.117 43.594 55.646 77.165z" fill="#7e707d" fill-rule="evenodd"/></g><g><path clip-rule="evenodd" d="m158.788 353.435c-.176 3.675-44.858 91.159-50.737 112.442h-51.384l.059-318.394c.5-33.571.852-55.736 55.617-77.166 2.234 25.369 46.504 282.207 46.445 283.118z" fill="#7e707d" fill-rule="evenodd"/></g><g><path clip-rule="evenodd" d="m407.124 376.276 24.751 89.601h-27.955l-23.781-86.103c-2.352-8.496-3.527-17.197-3.939-25.898-1.058-21.077 2.263-42.478 4.027-62.438l8.231-93.924c.222-2.53 3.932-2.497 4.108.037l10.59 152.827c.44 8.73 1.616 17.402 3.968 25.898z" fill="#6a5c6b" fill-rule="evenodd"/></g><g><path clip-rule="evenodd" d="m406.623 512h-117.379c-5.491 0-9.694-2.442-11.054-6.706l-14.464-45.544-7.726-24.323v-132.904c1.113 0 2.266-1.154 3.06-3.441 1.587-3.348 3.142-6.645 4.667-9.9 44.102-94.241 61.78-149.902 94.663-234.974l41.238 16.112-19.398 221.118c-1.762 19.955-5.089 41.362-4.028 62.439.412 8.695 1.586 17.4 3.935 25.899l33.512 121.283c1.967 7.088 1.298 10.941-7.026 10.941z" fill="#7e707d" fill-rule="evenodd"/></g><g><path clip-rule="evenodd" d="m256 302.523v132.904l-7.726 24.323-14.464 45.544c-1.36 4.265-5.594 6.706-11.085 6.706h-117.379c-8.293 0-8.963-3.853-7.026-10.941l33.512-121.283c2.349-8.499 3.523-17.204 3.966-25.899 1.03-21.078-2.287-42.485-4.028-62.439l-19.429-221.118 41.248-16.112 94.797 233.727 4.523 11.147c.825 2.287 1.948 3.441 3.091 3.441z" fill="#7e707d" fill-rule="evenodd"/></g><g><path clip-rule="evenodd" d="m256 55.501 30.131 27.25-6.379 16.198-23.987-21.695-23.664 21.401-6.261-15.904z" fill="#ff6d75" fill-rule="evenodd"/></g><g><path clip-rule="evenodd" d="m259.057 299.081 80.25-115.293c1.264-1.823 2.322-3.263 3.145-4.556l-56.44 145.16v92.452l26.692 95.156h-2.704-20.753c-5.497 0-9.701-2.44-11.053-6.702l-22.194-69.876v-132.902c1.117 0 2.263-1.146 3.057-3.439z" fill="#6a5c6b" fill-rule="evenodd"/></g><g><path clip-rule="evenodd" d="m252.913 299.081-80.221-115.293c-1.264-1.823-2.322-3.263-3.175-4.556l56.469 145.16v92.452l-26.72 95.156h2.704 20.753c5.497 0 9.73-2.44 11.082-6.702l22.195-69.876v-132.902c-1.146 0-2.263-1.146-3.087-3.439z" fill="#6a5c6b" fill-rule="evenodd"/></g><g><path clip-rule="evenodd" d="m104.876 376.276-24.751 89.601h27.926l23.781-86.103c2.352-8.496 3.527-17.197 3.968-25.898 1.029-21.077-2.293-42.478-4.027-62.438l-8.258-93.965c-.222-2.53-3.932-2.496-4.108.038l-10.593 152.868c-.41 8.729-1.615 17.401-3.938 25.897z" fill="#6a5c6b" fill-rule="evenodd"/></g><g><path d="m83.006 378.902c-4.267 0-7.726-3.445-7.726-7.712v-.03c0-4.267 3.459-7.726 7.726-7.726s7.726 3.459 7.726 7.726c0 4.268-3.459 7.742-7.726 7.742z" fill="#eff6ff"/></g><g><path d="m83.006 410.004c-4.267 0-7.726-3.445-7.726-7.712v-.03c0-4.267 3.459-7.726 7.726-7.726s7.726 3.459 7.726 7.726-3.459 7.742-7.726 7.742z" fill="#eff6ff"/></g><g><path d="m263.726 289.182v170.567l-7.726-24.322-7.726 24.323v-170.527c0-.443.041-.876.113-1.288l4.523 11.147c.824 2.287 1.947 3.441 3.091 3.441 1.113 0 2.266-1.154 3.06-3.441 1.585-3.348 3.141-6.644 4.665-9.9z" fill="#7e707d"/></g><g><path d="m428.965 378.902c-4.267 0-7.726-3.445-7.726-7.712v-.03c0-4.267 3.459-7.726 7.726-7.726s7.726 3.459 7.726 7.726c0 4.268-3.459 7.742-7.726 7.742z" fill="#eff6ff"/></g><g><path d="m428.965 410.004c-4.267 0-7.726-3.445-7.726-7.712v-.03c0-4.267 3.459-7.726 7.726-7.726s7.726 3.459 7.726 7.726-3.459 7.742-7.726 7.742z" fill="#eff6ff"/></g><g><path d="m346.186 351.225h-41.654c-4.267 0-7.726-3.459-7.726-7.726s3.459-7.726 7.726-7.726h41.654c4.267 0 7.726 3.459 7.726 7.726s-3.459 7.726-7.726 7.726z" fill="#584657"/></g><g><path d="m207.438 351.225h-41.654c-4.267 0-7.726-3.459-7.726-7.726s3.459-7.726 7.726-7.726h41.654c4.267 0 7.726 3.459 7.726 7.726s-3.459 7.726-7.726 7.726z" fill="#584657"/></g><g><path clip-rule="evenodd" d="m259.057 299.081 80.25-115.293c1.264-1.823 2.322-3.263 3.145-4.556 2.528-3.851 3.087-6.32 1.176-13.14l-4.615-16.462c-1.47-5.174-1.705-7.937 2.616-12.611l13.375-17.697c2.146-2.763 3.322-4.939 3.322-12.288 0-.176.059-52.826.059-52.826l-22.664-8.878c-2.117-.823-3.939-1.676-5.585-2.616l-17.696 63.82-23.458 84.603z" fill="#584657" fill-rule="evenodd"/></g><g><path clip-rule="evenodd" d="m252.913 299.081-80.221-115.293c-1.264-1.823-2.322-3.263-3.175-4.556-2.528-3.851-3.087-6.32-1.176-13.14l4.615-16.462c1.47-5.174 1.705-7.937-2.587-12.611l-13.375-17.697c-2.175-2.763-3.351-4.939-3.351-12.288.029-.176-.059-52.826-.059-52.826l22.694-8.878c2.117-.823 3.939-1.676 5.556-2.616l17.696 63.82 23.458 84.603z" fill="#584657" fill-rule="evenodd"/></g></g></svg>