<svg width="32" height="32" viewBox="0 0 32 32" fill="none" xmlns="http://www.w3.org/2000/svg">
<path d="M16 0L5.97513 16L16 32C24.8366 32 32 24.8366 32 16C32 7.16344 24.8366 0 16 0Z" fill="#28ABFA"/>
<path d="M0 16C0 24.8366 7.16344 32 16 32V0C7.16344 0 0 7.16344 0 16Z" fill="#14CFFF"/>
<path d="M16 3.75L11.8882 10.3125L16 16.875C19.6244 16.875 22.5625 13.9369 22.5625 10.3125C22.5625 6.68812 19.6244 3.75 16 3.75Z" fill="#111011"/>
<path d="M9.4375 10.3125C9.4375 13.9369 12.3756 16.875 16 16.875V3.75C12.3756 3.75 9.4375 6.68812 9.4375 10.3125Z" fill="#503B6A"/>
<path d="M26.5406 20.9652C25.2947 19.5574 23.5031 18.75 21.625 18.75H16L12.25 23.5L16 28.25C20.3951 28.25 24.4773 25.8744 26.6534 22.0501L26.985 21.4673L26.5406 20.9652Z" fill="#111011"/>
<path d="M10.375 18.75C8.49692 18.75 6.70523 19.5574 5.45942 20.9652L5.01505 21.4674L5.34667 22.0502C7.52273 25.8744 11.6049 28.25 16 28.25V18.75H10.375Z" fill="#503B6A"/>
</svg>
